<mxfile host="app.diagrams.net" modified="2023-02-22T05:30:26.992Z" agent="5.0 (Macintosh; Intel Mac OS X 10_15_7) AppleWebKit/537.36 (KHTML, like Gecko) Chrome/110.0.0.0 Safari/537.36" etag="qiRX1kx2mjNcGSbe2KYL" version="20.8.22" type="github">
  <diagram name="Page-1" id="C63a_Bhu5eEhYhmPnG0q">
    <mxGraphModel dx="1272" dy="864" grid="1" gridSize="10" guides="1" tooltips="1" connect="1" arrows="1" fold="1" page="1" pageScale="1" pageWidth="850" pageHeight="1100" math="0" shadow="0">
      <root>
        <mxCell id="0" />
        <mxCell id="1" parent="0" />
        <mxCell id="2c9n9-5uNI2oTbSOHDFP-1" value="End" style="ellipse;whiteSpace=wrap;html=1;aspect=fixed;fillColor=#f8cecc;strokeColor=#b85450;fontStyle=1;strokeWidth=2;" vertex="1" parent="1">
          <mxGeometry x="115" y="620" width="70" height="70" as="geometry" />
        </mxCell>
        <mxCell id="2c9n9-5uNI2oTbSOHDFP-2" value="" style="edgeStyle=orthogonalEdgeStyle;rounded=0;orthogonalLoop=1;jettySize=auto;html=1;" edge="1" parent="1" target="2c9n9-5uNI2oTbSOHDFP-6">
          <mxGeometry relative="1" as="geometry">
            <mxPoint x="150.0000000000001" y="159.9999999999999" as="sourcePoint" />
          </mxGeometry>
        </mxCell>
        <mxCell id="2c9n9-5uNI2oTbSOHDFP-3" value="" style="edgeStyle=orthogonalEdgeStyle;rounded=0;orthogonalLoop=1;jettySize=auto;html=1;" edge="1" parent="1" source="2c9n9-5uNI2oTbSOHDFP-4" target="2c9n9-5uNI2oTbSOHDFP-9">
          <mxGeometry relative="1" as="geometry" />
        </mxCell>
        <mxCell id="2c9n9-5uNI2oTbSOHDFP-4" value="tekan tombol &quot;batal&quot;" style="shape=parallelogram;perimeter=parallelogramPerimeter;whiteSpace=wrap;html=1;fixedSize=1;strokeWidth=1;fillColor=#fff2cc;strokeColor=#d6b656;" vertex="1" parent="1">
          <mxGeometry x="57.5" y="320" width="185" height="50" as="geometry" />
        </mxCell>
        <mxCell id="2c9n9-5uNI2oTbSOHDFP-5" value="" style="edgeStyle=orthogonalEdgeStyle;rounded=0;orthogonalLoop=1;jettySize=auto;html=1;entryX=0.5;entryY=0;entryDx=0;entryDy=0;" edge="1" parent="1" source="2c9n9-5uNI2oTbSOHDFP-6" target="2c9n9-5uNI2oTbSOHDFP-4">
          <mxGeometry relative="1" as="geometry">
            <mxPoint x="150" y="290" as="targetPoint" />
          </mxGeometry>
        </mxCell>
        <mxCell id="2c9n9-5uNI2oTbSOHDFP-6" value="client membuka jadwal&lt;br&gt;yang ingin dibatalkan" style="rounded=1;whiteSpace=wrap;html=1;fontSize=12;glass=0;strokeWidth=1;shadow=0;" vertex="1" parent="1">
          <mxGeometry x="77.5" y="200" width="145" height="70" as="geometry" />
        </mxCell>
        <mxCell id="2c9n9-5uNI2oTbSOHDFP-7" value="client melihat jadwal" style="ellipse;whiteSpace=wrap;html=1;fillColor=#d5e8d4;strokeColor=#82b366;strokeWidth=2;" vertex="1" parent="1">
          <mxGeometry x="90" y="80" width="120" height="80" as="geometry" />
        </mxCell>
        <mxCell id="2c9n9-5uNI2oTbSOHDFP-8" value="" style="edgeStyle=orthogonalEdgeStyle;rounded=0;orthogonalLoop=1;jettySize=auto;html=1;" edge="1" parent="1" source="2c9n9-5uNI2oTbSOHDFP-9" target="2c9n9-5uNI2oTbSOHDFP-11">
          <mxGeometry relative="1" as="geometry" />
        </mxCell>
        <mxCell id="2c9n9-5uNI2oTbSOHDFP-9" value="modal untuk input alasan" style="shape=parallelogram;perimeter=parallelogramPerimeter;whiteSpace=wrap;html=1;fixedSize=1;strokeWidth=1;fillColor=#fff2cc;strokeColor=#d6b656;" vertex="1" parent="1">
          <mxGeometry x="57.5" y="420" width="185" height="50" as="geometry" />
        </mxCell>
        <mxCell id="2c9n9-5uNI2oTbSOHDFP-10" value="" style="edgeStyle=orthogonalEdgeStyle;rounded=0;orthogonalLoop=1;jettySize=auto;html=1;" edge="1" parent="1" source="2c9n9-5uNI2oTbSOHDFP-11" target="2c9n9-5uNI2oTbSOHDFP-1">
          <mxGeometry relative="1" as="geometry" />
        </mxCell>
        <mxCell id="2c9n9-5uNI2oTbSOHDFP-11" value="pemberitahuan aksi dan&lt;br&gt;respon servernya" style="shape=parallelogram;perimeter=parallelogramPerimeter;whiteSpace=wrap;html=1;fixedSize=1;strokeWidth=1;fillColor=#fff2cc;strokeColor=#d6b656;" vertex="1" parent="1">
          <mxGeometry x="57.5" y="525" width="185" height="50" as="geometry" />
        </mxCell>
      </root>
    </mxGraphModel>
  </diagram>
</mxfile>
